<?xml version="1.0" encoding="UTF-8"?>
<svg xmlns="http://www.w3.org/2000/svg" xmlns:xlink="http://www.w3.org/1999/xlink" width="26px" height="26px" viewBox="0 0 26 26" version="1.1">
<g id="surface1">
<path style=" stroke:none;fill-rule:nonzero;fill:rgb(90.588235%,22.352941%,22.352941%);fill-opacity:1;" d="M 19.621094 10.609375 C 18.324219 10.382812 18.054688 11.421875 18.054688 11.421875 C 18.054688 11.421875 18.105469 10.039062 16.722656 9.734375 C 15.507812 9.46875 15.105469 10.679688 15.105469 10.679688 C 15.105469 10.679688 15.1875 9.183594 13.804688 9.109375 C 12.53125 9.042969 12.382812 10.265625 12.382812 10.265625 C 12.355469 10.070312 11.605469 3.601562 11.570312 3.359375 C 11.472656 2.699219 10.851562 2.410156 10.46875 2.40625 C 9.96875 2.398438 9.421875 2.90625 9.429688 3.46875 C 9.429688 3.605469 9.414062 11.925781 9.40625 15.351562 C 8.988281 14.414062 8.175781 13.015625 6.90625 12.59375 C 5.6875 12.1875 4.875 13 4.875 13 C 7.3125 17.46875 8.539062 21.539062 12.1875 23.15625 L 12.132812 23.007812 C 12.171875 23.03125 12.203125 23.054688 12.242188 23.078125 L 19.433594 21.695312 C 19.433594 21.695312 20.09375 20.386719 20.441406 18.601562 C 20.796875 16.789062 20.882812 14.9375 20.863281 14.058594 C 20.828125 12.699219 20.710938 10.804688 19.621094 10.609375 Z M 19.621094 10.609375 "/>
</g>
</svg>
