<?xml version="1.0" standalone="no"?>
<!DOCTYPE svg PUBLIC "-//W3C//DTD SVG 20010904//EN"
 "http://www.w3.org/TR/2001/REC-SVG-20010904/DTD/svg10.dtd">
<svg version="1.0" xmlns="http://www.w3.org/2000/svg"
 width="240.000000pt" height="240.000000pt" viewBox="0 0 240.000000 240.000000"
 preserveAspectRatio="xMidYMid meet">
<metadata>
Created by potrace 1.14, written by Peter Selinger 2001-2017
</metadata>
<g transform="translate(0.000000,240.000000) scale(0.100000,-0.100000)"
fill="#000000" stroke="none">
<path d="M0 1200 l0 -1200 1200 0 1200 0 0 1200 0 1200 -1200 0 -1200 0 0
-1200z m1323 285 l118 -205 -33 -60 c-18 -33 -35 -60 -38 -60 -4 0 -42 63 -85
140 -44 77 -82 140 -85 140 -3 0 -25 -35 -48 -76 -52 -90 -59 -62 72 -288 182
-314 206 -357 206 -366 0 -6 -87 -10 -225 -10 l-224 0 -36 61 c-19 33 -35 62
-35 64 0 3 69 6 154 7 l154 3 -128 223 -129 224 117 204 c64 112 119 204 122
204 3 0 58 -93 123 -205z m-391 -396 l31 -55 -95 -165 -95 -164 -66 0 c-37 0
-67 4 -68 8 -2 14 246 437 254 434 5 -1 22 -27 39 -58z m710 -159 c89 -155
123 -222 114 -226 -7 -3 -39 -4 -71 -2 l-57 3 -94 160 c-51 88 -93 163 -94
167 0 9 63 118 70 118 3 0 62 -99 132 -220z"/>
</g>
</svg>
